<svg width="86" height="19" viewBox="0 0 86 19" fill="none" xmlns="http://www.w3.org/2000/svg">
<path d="M4.88429 14.1127C3.87584 14.1127 2.94637 13.9001 2.09587 13.4749C1.25752 13.0375 0.558899 12.3328 0 11.3608L2.20522 9.95746C2.53327 10.6136 2.94637 11.0935 3.44452 11.3972C3.94267 11.6888 4.47119 11.8346 5.03009 11.8346C5.62544 11.8346 6.09321 11.701 6.43341 11.4337C6.77361 11.1664 6.94371 10.814 6.94371 10.3766C6.94371 9.95138 6.81006 9.61118 6.54276 9.35603C6.27546 9.10088 5.91704 8.89433 5.46749 8.73638C5.03009 8.57844 4.55017 8.43264 4.02772 8.29899C3.04357 8.04384 2.2599 7.62466 1.6767 7.04146C1.0935 6.44611 0.801898 5.66852 0.801898 4.70867C0.801898 3.94322 0.990223 3.27497 1.36687 2.70392C1.74352 2.13287 2.26597 1.6894 2.93422 1.3735C3.61462 1.0576 4.40437 0.899651 5.30346 0.899651C6.29976 0.899651 7.13203 1.1062 7.80028 1.5193C8.46853 1.9324 9.03958 2.5156 9.51343 3.2689L7.32643 4.61754C7.02269 4.11939 6.70679 3.75489 6.37874 3.52405C6.05069 3.2932 5.64974 3.17777 5.17589 3.17777C4.66559 3.17777 4.24034 3.30535 3.90014 3.56049C3.57209 3.81564 3.40807 4.15584 3.40807 4.58109C3.40807 5.05494 3.60247 5.40122 3.99127 5.61992C4.39222 5.82647 4.87214 6.01479 5.43104 6.18489C5.80769 6.30639 6.22686 6.45219 6.68856 6.62229C7.16241 6.78024 7.61803 7.00501 8.05543 7.29661C8.49283 7.57606 8.85126 7.95271 9.13071 8.42656C9.41016 8.90041 9.54988 9.50183 9.54988 10.2308C9.54988 10.9963 9.36156 11.6706 8.98491 12.2538C8.60826 12.837 8.07366 13.2926 7.38111 13.6207C6.68856 13.9487 5.85629 14.1127 4.88429 14.1127Z" fill="white"/>
<path d="M11.7672 13.8758V1.11835H19.2577V3.4147H14.3187V6.40359H19.1665V8.66348H14.3187V13.8758H11.7672Z" fill="white"/>
<path d="M30.7934 0L26.5219 15.8692H25.124L29.3954 0H30.7934Z" fill="#BFBFBF"/>
<path d="M37.3671 13.8758V1.11835H41.6136C42.5856 1.11835 43.3814 1.29452 44.001 1.64687C44.6207 1.99922 45.0763 2.467 45.3679 3.0502C45.6595 3.6334 45.8053 4.27734 45.8053 4.98204C45.8053 5.68674 45.6595 6.33069 45.3679 6.91389C45.0763 7.49709 44.6207 7.96486 44.001 8.31721C43.3814 8.66956 42.5856 8.84573 41.6136 8.84573H38.898V13.8758H37.3671ZM38.898 7.44241H41.5771C42.4762 7.44241 43.1445 7.21764 43.5819 6.76809C44.0193 6.30639 44.238 5.71104 44.238 4.98204C44.238 4.25304 44.0193 3.65769 43.5819 3.196C43.1445 2.7343 42.4762 2.50345 41.5771 2.50345H38.898V7.44241Z" fill="white"/>
<path d="M50.9194 14.0945C50.2026 14.0945 49.6072 13.9669 49.1334 13.7118C48.6595 13.4567 48.3072 13.1225 48.0763 12.7094C47.8455 12.2842 47.73 11.8225 47.73 11.3243C47.73 10.4009 48.0642 9.70231 48.7324 9.22846C49.4128 8.74246 50.318 8.49946 51.4479 8.49946H53.9265V8.31721C53.9265 6.73771 53.2036 5.94797 51.7577 5.94797C51.1745 5.94797 50.6825 6.07554 50.2815 6.33069C49.8927 6.58584 49.6437 6.98679 49.5343 7.53354H47.967C48.0277 6.92604 48.2282 6.40359 48.5684 5.96619C48.9207 5.52879 49.3703 5.19467 49.917 4.96382C50.4638 4.73297 51.0773 4.61754 51.7577 4.61754C53.0456 4.61754 53.9812 4.95774 54.5644 5.63814C55.1597 6.30639 55.4574 7.19941 55.4574 8.31721V13.8758H54.1452L54.0176 12.4725H53.8901C53.6228 12.9099 53.2643 13.2926 52.8148 13.6207C52.3774 13.9366 51.7456 14.0945 50.9194 14.0945ZM51.1928 12.7459C51.776 12.7459 52.268 12.6062 52.669 12.3267C53.0821 12.0473 53.3919 11.6767 53.5985 11.215C53.8172 10.7533 53.9265 10.2491 53.9265 9.70231H51.5755C50.7493 9.70231 50.1661 9.84203 49.8259 10.1215C49.4979 10.4009 49.3338 10.7715 49.3338 11.2332C49.3338 11.7071 49.4918 12.0776 49.8077 12.3449C50.1236 12.6122 50.5853 12.7459 51.1928 12.7459Z" fill="white"/>
<path d="M61.7197 11.215C61.0879 11.215 60.5229 11.0996 60.0248 10.8687L59.4051 11.6159C59.2715 11.7982 59.235 11.9804 59.2958 12.1627C59.3687 12.3328 59.5448 12.4178 59.8243 12.4178H62.2118C63.2931 12.4178 64.1679 12.6305 64.8362 13.0557C65.5044 13.4688 65.8385 14.131 65.8385 15.0422C65.8385 15.589 65.6988 16.0932 65.4194 16.5549C65.1399 17.0166 64.6964 17.3872 64.0889 17.6666C63.4936 17.9582 62.7099 18.104 61.7379 18.104C60.4743 18.104 59.4598 17.8671 58.6943 17.3932C57.9289 16.9194 57.5462 16.1965 57.5462 15.2245C57.5462 14.8721 57.6312 14.5441 57.8013 14.2403C57.9836 13.9487 58.2083 13.6875 58.4756 13.4567C58.1233 13.238 57.9046 12.9099 57.8195 12.4725C57.7466 12.0351 57.8803 11.6038 58.2205 11.1785L59.0406 10.1579C58.4574 9.55043 58.1658 8.80321 58.1658 7.91626C58.1658 7.33306 58.3055 6.79239 58.585 6.29424C58.8644 5.78394 59.2654 5.37692 59.7878 5.07317C60.3224 4.76942 60.9664 4.61754 61.7197 4.61754C62.2057 4.61754 62.6552 4.69044 63.0683 4.83624H66.4582V5.98442L64.7633 6.03909V6.16667C65.0792 6.68911 65.2371 7.27231 65.2371 7.91626C65.2371 8.49946 65.0974 9.04621 64.8179 9.55651C64.5506 10.0547 64.1497 10.4556 63.6151 10.7594C63.0926 11.0631 62.4608 11.215 61.7197 11.215ZM61.7197 9.90278C62.315 9.90278 62.801 9.72661 63.1777 9.37426C63.5665 9.02191 63.7609 8.53591 63.7609 7.91626C63.7609 7.29661 63.5665 6.81669 63.1777 6.47649C62.801 6.12414 62.315 5.94797 61.7197 5.94797C61.1122 5.94797 60.614 6.12414 60.2252 6.47649C59.8364 6.81669 59.642 7.29661 59.642 7.91626C59.642 8.53591 59.8364 9.02191 60.2252 9.37426C60.614 9.72661 61.1122 9.90278 61.7197 9.90278ZM59.0588 15.1698C59.0588 15.7044 59.3079 16.1053 59.8061 16.3726C60.3042 16.6399 60.9482 16.7736 61.7379 16.7736C62.5034 16.7736 63.123 16.6217 63.5969 16.318C64.0829 16.0142 64.3259 15.6072 64.3259 15.0969C64.3259 14.6959 64.1558 14.3557 63.8156 14.0763C63.4754 13.809 62.8496 13.6754 61.9384 13.6754H59.879C59.3322 14.0763 59.0588 14.5744 59.0588 15.1698Z" fill="white"/>
<path d="M72.1737 14.0945C71.3232 14.0945 70.5699 13.9001 69.9138 13.5113C69.2698 13.1104 68.7595 12.5576 68.3829 11.8529C68.0062 11.136 67.8179 10.3037 67.8179 9.35603C67.8179 8.40834 68.0002 7.58214 68.3647 6.87744C68.7413 6.16059 69.2577 5.60777 69.9138 5.21897C70.5699 4.81802 71.3353 4.61754 72.2101 4.61754C73.0849 4.61754 73.8322 4.81802 74.4518 5.21897C75.0715 5.60777 75.5453 6.12414 75.8734 6.76809C76.2014 7.41204 76.3654 8.10459 76.3654 8.84573C76.3654 8.97938 76.3594 9.11303 76.3472 9.24668C76.3472 9.38033 76.3472 9.53221 76.3472 9.70231H69.3306C69.367 10.3706 69.5189 10.9295 69.7862 11.379C70.0657 11.8164 70.4119 12.1445 70.825 12.3632C71.2503 12.5819 71.6998 12.6912 72.1737 12.6912C72.8419 12.6912 73.3644 12.5515 73.741 12.272C74.1177 11.9926 74.4032 11.6038 74.5976 11.1056H76.1103C75.9037 11.944 75.4724 12.6548 74.8163 13.238C74.1602 13.809 73.2793 14.0945 72.1737 14.0945ZM72.1737 5.98442C71.469 5.98442 70.8493 6.19704 70.3147 6.62229C69.7923 7.04754 69.4703 7.64289 69.3488 8.40834H74.8528C74.8042 7.65504 74.5308 7.06576 74.0326 6.64051C73.5466 6.20311 72.927 5.98442 72.1737 5.98442Z" fill="white"/>
<path d="M82.3726 14.0945C81.2183 14.0945 80.2828 13.8272 79.5659 13.2926C78.8612 12.7459 78.4663 11.9987 78.3813 11.051H79.9669C80.0398 11.5491 80.2828 11.9561 80.6959 12.272C81.1211 12.5879 81.6922 12.7459 82.409 12.7459C83.0894 12.7459 83.5936 12.6001 83.9217 12.3085C84.2619 12.0169 84.432 11.6828 84.432 11.3061C84.432 10.7958 84.2315 10.4495 83.8305 10.2673C83.4296 10.0729 82.8282 9.92708 82.0263 9.82988C81.0664 9.72053 80.2706 9.45931 79.6388 9.04621C79.007 8.63311 78.6911 8.01346 78.6911 7.18726C78.6911 6.44611 79.0009 5.83254 79.6206 5.34654C80.2402 4.86054 81.0847 4.61754 82.1539 4.61754C83.2109 4.61754 84.0432 4.86054 84.6507 5.34654C85.2582 5.82039 85.6044 6.50079 85.6895 7.38774H84.1768C84.1404 6.95034 83.9278 6.60406 83.539 6.34891C83.1623 6.08162 82.6885 5.94797 82.1174 5.94797C81.5221 5.94797 81.0604 6.06339 80.7323 6.29424C80.4043 6.51294 80.2402 6.80454 80.2402 7.16904C80.2402 7.53354 80.4225 7.83729 80.787 8.08029C81.1636 8.31114 81.7529 8.46301 82.5548 8.53591C83.1866 8.60881 83.7637 8.73031 84.2862 8.90041C84.8086 9.07051 85.2217 9.33781 85.5255 9.70231C85.8414 10.0668 85.9993 10.5771 85.9993 11.2332C86.0115 11.78 85.8596 12.272 85.5437 12.7094C85.2399 13.1347 84.8147 13.4749 84.268 13.73C83.7212 13.973 83.0894 14.0945 82.3726 14.0945Z" fill="white"/>
</svg>
